<?xml version="1.0" encoding="UTF-8" standalone="no"?>
<!DOCTYPE svg PUBLIC "-//W3C//DTD SVG 1.1//EN"
 "http://www.w3.org/Graphics/SVG/1.1/DTD/svg11.dtd">
<!-- Generated by graphviz version 2.48.0 (0)
 -->
<!-- Title: ResourceInventoryModel Pages: 1 -->
<svg width="2425pt" height="744pt"
 viewBox="0.00 0.00 2425.00 744.00" xmlns="http://www.w3.org/2000/svg" xmlns:xlink="http://www.w3.org/1999/xlink">
<g id="graph0" class="graph" transform="scale(1 1) rotate(0) translate(4 740)">
<title>ResourceInventoryModel</title>
<polygon fill="white" stroke="transparent" points="-4,4 -4,-740 2421,-740 2421,4 -4,4"/>
<text text-anchor="middle" x="1208.5" y="-7.8" font-family="Times,serif" font-size="14.00">Resource Inventory Model</text>
<g id="clust1" class="cluster">
<title>clustercris</title>
<polygon fill="none" stroke="black" points="8,-260 8,-728 452,-728 452,-260 8,-260"/>
<text text-anchor="middle" x="230" y="-716.8" font-family="Times,serif" font-size="9.00">CRIS</text>
</g>
<g id="clust2" class="cluster">
<title>clusterredmine</title>
<polygon fill="none" stroke="black" points="1796,-378 1796,-594 2148,-594 2148,-378 1796,-378"/>
<text text-anchor="middle" x="1972" y="-582.8" font-family="Times,serif" font-size="9.00">Redmine</text>
</g>
<!-- Resource -->
<g id="node1" class="node">
<title>Resource</title>
<g id="a_node1"><a xlink:href="#Resource" xlink:title="{Resource}">
<polygon fill="none" stroke="gray" points="1804.5,-513.5 1804.5,-549.5 1859.5,-549.5 1859.5,-513.5 1804.5,-513.5"/>
<text text-anchor="middle" x="1832" y="-529.6" font-family="Bitstream Vera Sans" font-size="8.00">Resource</text>
</a>
</g>
</g>
<!-- Resource&#45;&gt;Resource -->
<g id="edge19" class="edge">
<title>Resource&#45;&gt;Resource</title>
<g id="a_edge19"><a xlink:href="#resourceReusesResource" xlink:title="re&#45;uses">
<path fill="none" stroke="gray" stroke-dasharray="5,2" d="M1859.5,-535.67C1892.62,-538.82 1931.5,-537.43 1931.5,-531.5 1931.5,-526.17 1900.11,-524.51 1869.73,-526.51"/>
<polygon fill="gray" stroke="gray" points="1869.19,-523.04 1859.5,-527.33 1869.75,-530.02 1869.19,-523.04"/>
</a>
</g>
<g id="a_edge19&#45;label"><a xlink:href="#resourceReusesResource" xlink:title="re&#45;uses">
<text text-anchor="middle" x="1947" y="-529.6" font-family="Bitstream Vera Sans" font-size="8.00" fill="gray">re&#45;uses</text>
</a>
</g>
</g>
<!-- Resource&#45;&gt;Resource -->
<g id="edge20" class="edge">
<title>Resource&#45;&gt;Resource</title>
<g id="a_edge20"><a xlink:href="#resourceReusesResource" xlink:title="re&#45;uses&#10;is related to with role">
<path fill="none" stroke="black" d="M1859.85,-537.25C1919.83,-546.68 2003.5,-544.76 2003.5,-531.5 2003.5,-518.97 1928.73,-516.57 1869.89,-524.31"/>
<polygon fill="black" stroke="black" points="1869.25,-520.86 1859.85,-525.75 1870.25,-527.79 1869.25,-520.86"/>
</a>
</g>
<g id="a_edge20&#45;label"><a xlink:href="#resourceReusesResource" xlink:title="re&#45;uses&#10;is related to with role">
<text text-anchor="middle" x="2047" y="-534.1" font-family="Bitstream Vera Sans" font-size="8.00">re&#45;uses</text>
<text text-anchor="middle" x="2047" y="-525.1" font-family="Bitstream Vera Sans" font-size="8.00">is related to with role</text>
</a>
</g>
</g>
<!-- Software -->
<g id="node5" class="node">
<title>Software</title>
<g id="a_node5"><a xlink:href="#Software" xlink:title="{Software}">
<polygon fill="none" stroke="gray" points="1291,-386.5 1291,-422.5 1345,-422.5 1345,-386.5 1291,-386.5"/>
<text text-anchor="middle" x="1318" y="-402.6" font-family="Bitstream Vera Sans" font-size="8.00">Software</text>
</a>
</g>
</g>
<!-- Resource&#45;&gt;Software -->
<g id="edge2" class="edge">
<title>Resource&#45;&gt;Software</title>
<path fill="none" stroke="gray" stroke-dasharray="1,5" d="M1804.12,-529.39C1741.8,-526.29 1587.05,-515.05 1464,-477 1424.71,-464.85 1382.84,-443.36 1354.06,-427.11"/>
<polygon fill="gray" stroke="gray" points="1355.61,-423.96 1345.19,-422.03 1352.13,-430.04 1355.61,-423.96"/>
<text text-anchor="middle" x="1491" y="-466.1" font-family="Bitstream Vera Sans" font-size="8.00" fill="gray">has subclass</text>
</g>
<!-- Dataset -->
<g id="node9" class="node">
<title>Dataset</title>
<g id="a_node9"><a xlink:href="#Dataset" xlink:title="{Data Set}">
<polygon fill="none" stroke="gray" points="460,-386.5 460,-422.5 514,-422.5 514,-386.5 460,-386.5"/>
<text text-anchor="middle" x="487" y="-402.6" font-family="Bitstream Vera Sans" font-size="8.00">Data Set</text>
</a>
</g>
</g>
<!-- Resource&#45;&gt;Dataset -->
<g id="edge4" class="edge">
<title>Resource&#45;&gt;Dataset</title>
<path fill="none" stroke="gray" stroke-dasharray="1,5" d="M1804.25,-529.97C1634.99,-526.64 745.12,-507.76 628,-477 589.24,-466.82 548.83,-445 521.26,-428.12"/>
<polygon fill="gray" stroke="gray" points="522.76,-424.93 512.42,-422.61 519.06,-430.87 522.76,-424.93"/>
<text text-anchor="middle" x="655" y="-466.1" font-family="Bitstream Vera Sans" font-size="8.00" fill="gray">has subclass</text>
</g>
<!-- Publication -->
<g id="node10" class="node">
<title>Publication</title>
<g id="a_node10"><a xlink:href="#Publication" xlink:title="{Publication}">
<polygon fill="none" stroke="gray" points="177,-268.5 177,-304.5 239,-304.5 239,-268.5 177,-268.5"/>
<text text-anchor="middle" x="208" y="-284.6" font-family="Bitstream Vera Sans" font-size="8.00">Publication</text>
</a>
</g>
</g>
<!-- Resource&#45;&gt;Publication -->
<g id="edge5" class="edge">
<title>Resource&#45;&gt;Publication</title>
<path fill="none" stroke="gray" stroke-dasharray="1,5" d="M1804.45,-530.44C1701.64,-529.84 1330.86,-524.32 1030,-477 784.23,-438.34 729.93,-394.67 487,-341 402.85,-322.41 303.59,-304.27 249.05,-294.63"/>
<polygon fill="gray" stroke="gray" points="249.54,-291.16 239.08,-292.87 248.32,-298.06 249.54,-291.16"/>
<text text-anchor="middle" x="810" y="-402.6" font-family="Bitstream Vera Sans" font-size="8.00" fill="gray">has subclass</text>
</g>
<!-- Metadata -->
<g id="node13" class="node">
<title>Metadata</title>
<g id="a_node13"><a xlink:href="#Metadata" xlink:title="{Metadata}">
<polygon fill="none" stroke="gray" points="2146,-23.5 2146,-59.5 2202,-59.5 2202,-23.5 2146,-23.5"/>
<text text-anchor="middle" x="2174" y="-39.6" font-family="Bitstream Vera Sans" font-size="8.00">Metadata</text>
</a>
</g>
</g>
<!-- Resource&#45;&gt;Metadata -->
<g id="edge21" class="edge">
<title>Resource&#45;&gt;Metadata</title>
<g id="a_edge21"><a xlink:href="#resourceHasMetadata" xlink:title="is described in">
<path fill="none" stroke="black" d="M1859.61,-528.31C1952.12,-520.83 2247.56,-495.72 2286,-477 2326.26,-457.4 2357,-450.28 2357,-405.5 2357,-405.5 2357,-405.5 2357,-158.5 2357,-90.47 2265.68,-60.67 2212.06,-49.03"/>
<polygon fill="black" stroke="black" points="2212.69,-45.59 2202.19,-47.01 2211.28,-52.45 2212.69,-45.59"/>
</a>
</g>
<g id="a_edge21&#45;label"><a xlink:href="#resourceHasMetadata" xlink:title="is described in">
<text text-anchor="middle" x="2387" y="-284.6" font-family="Bitstream Vera Sans" font-size="8.00">is described in</text>
</a>
</g>
</g>
<!-- Collection -->
<g id="node2" class="node">
<title>Collection</title>
<g id="a_node2"><a xlink:href="#Collection" xlink:title="{Collection}">
<polygon fill="none" stroke="gray" points="1968.5,-23.5 1968.5,-59.5 2025.5,-59.5 2025.5,-23.5 1968.5,-23.5"/>
<text text-anchor="middle" x="1997" y="-39.6" font-family="Bitstream Vera Sans" font-size="8.00">Collection</text>
</a>
</g>
</g>
<!-- ResourceInstancePart -->
<g id="node3" class="node">
<title>ResourceInstancePart</title>
<g id="a_node3"><a xlink:href="#ResourceInstancePart" xlink:title="{Resource Instance Part}">
<polygon fill="none" stroke="black" points="1839,-141.5 1839,-177.5 1949,-177.5 1949,-141.5 1839,-141.5"/>
<text text-anchor="middle" x="1894" y="-157.6" font-family="Bitstream Vera Sans" font-size="8.00">Resource Instance Part</text>
</a>
</g>
</g>
<!-- ResourceInstancePart&#45;&gt;Collection -->
<g id="edge1" class="edge">
<title>ResourceInstancePart&#45;&gt;Collection</title>
<path fill="none" stroke="gray" stroke-dasharray="1,5" d="M1884.03,-141.35C1877.73,-128.04 1872.28,-109.63 1881,-96 1897.96,-69.5 1931.75,-55.94 1958.51,-49.12"/>
<polygon fill="gray" stroke="gray" points="1959.42,-52.5 1968.37,-46.82 1957.83,-45.68 1959.42,-52.5"/>
<text text-anchor="middle" x="1908" y="-98.6" font-family="Bitstream Vera Sans" font-size="8.00" fill="gray">has subclass</text>
</g>
<!-- ResourceInstancePart&#45;&gt;Collection -->
<g id="edge29" class="edge">
<title>ResourceInstancePart&#45;&gt;Collection</title>
<g id="a_edge29"><a xlink:href="#resourceInstancePartIsPartOfCollection" xlink:title="is part of">
<path fill="none" stroke="black" d="M1913,-141.3C1923.92,-131.11 1937.67,-117.74 1949,-105 1959.36,-93.35 1970.01,-79.69 1978.64,-68.11"/>
<polygon fill="black" stroke="black" points="1981.69,-69.87 1984.8,-59.74 1976.05,-65.72 1981.69,-69.87"/>
</a>
</g>
<g id="a_edge29&#45;label"><a xlink:href="#resourceInstancePartIsPartOfCollection" xlink:title="is part of">
<text text-anchor="middle" x="1974.5" y="-98.6" font-family="Bitstream Vera Sans" font-size="8.00">is part of</text>
</a>
</g>
</g>
<!-- Format -->
<g id="node4" class="node">
<title>Format</title>
<g id="a_node4"><a xlink:href="#Format" xlink:title="{Format}">
<polygon fill="none" stroke="black" points="1472,-23.5 1472,-59.5 1526,-59.5 1526,-23.5 1472,-23.5"/>
<text text-anchor="middle" x="1499" y="-39.6" font-family="Bitstream Vera Sans" font-size="8.00">Format</text>
</a>
</g>
</g>
<!-- ResourceInstancePart&#45;&gt;Format -->
<g id="edge30" class="edge">
<title>ResourceInstancePart&#45;&gt;Format</title>
<g id="a_edge30"><a xlink:href="#fileHasFormat" xlink:title="has format">
<path fill="none" stroke="black" d="M1838.66,-142.25C1756.7,-118.18 1605.26,-73.7 1535.69,-53.27"/>
<polygon fill="black" stroke="black" points="1536.62,-49.9 1526.04,-50.44 1534.64,-56.62 1536.62,-49.9"/>
</a>
</g>
<g id="a_edge30&#45;label"><a xlink:href="#fileHasFormat" xlink:title="has format">
<text text-anchor="middle" x="1730.5" y="-98.6" font-family="Bitstream Vera Sans" font-size="8.00">has format</text>
</a>
</g>
</g>
<!-- ResourceInstancePart&#45;&gt;Metadata -->
<g id="edge7" class="edge">
<title>ResourceInstancePart&#45;&gt;Metadata</title>
<path fill="none" stroke="gray" stroke-dasharray="1,5" d="M1935.31,-141.38C1989.59,-118.9 2084.13,-79.73 2136.46,-58.05"/>
<polygon fill="gray" stroke="gray" points="2137.82,-61.28 2145.72,-54.22 2135.14,-54.81 2137.82,-61.28"/>
<text text-anchor="middle" x="2069" y="-98.6" font-family="Bitstream Vera Sans" font-size="8.00" fill="gray">has subclass</text>
</g>
<!-- Carrier -->
<g id="node16" class="node">
<title>Carrier</title>
<g id="a_node16"><a xlink:href="#Carrier" xlink:title="{Information Carrier}">
<polygon fill="none" stroke="black" points="1726.5,-23.5 1726.5,-59.5 1819.5,-59.5 1819.5,-23.5 1726.5,-23.5"/>
<text text-anchor="middle" x="1773" y="-39.6" font-family="Bitstream Vera Sans" font-size="8.00">Information Carrier</text>
</a>
</g>
</g>
<!-- ResourceInstancePart&#45;&gt;Carrier -->
<g id="edge31" class="edge">
<title>ResourceInstancePart&#45;&gt;Carrier</title>
<g id="a_edge31"><a xlink:href="#fileHasCarrier" xlink:title="has carrier">
<path fill="none" stroke="black" d="M1863.07,-141.4C1847.57,-131.93 1829.15,-119.2 1815,-105 1804.26,-94.23 1794.61,-80.34 1787.28,-68.39"/>
<polygon fill="black" stroke="black" points="1790.25,-66.53 1782.14,-59.71 1784.22,-70.1 1790.25,-66.53"/>
</a>
</g>
<g id="a_edge31&#45;label"><a xlink:href="#fileHasCarrier" xlink:title="has carrier">
<text text-anchor="middle" x="1837" y="-98.6" font-family="Bitstream Vera Sans" font-size="8.00">has carrier</text>
</a>
</g>
</g>
<!-- Software&#45;&gt;Format -->
<g id="edge38" class="edge">
<title>Software&#45;&gt;Format</title>
<g id="a_edge38"><a xlink:href="#softwareHasInputFormat" xlink:title="consumes data of format&#10;produces data of format">
<path fill="none" stroke="black" d="M1326.73,-386.09C1356,-327.71 1450.79,-138.66 1485.82,-68.78"/>
<polygon fill="black" stroke="black" points="1489,-70.25 1490.36,-59.74 1482.75,-67.11 1489,-70.25"/>
</a>
</g>
<g id="a_edge38&#45;label"><a xlink:href="#softwareHasInputFormat" xlink:title="consumes data of format&#10;produces data of format">
<text text-anchor="middle" x="1463.5" y="-225.6" font-family="Bitstream Vera Sans" font-size="8.00">consumes data of format</text>
<text text-anchor="middle" x="1463.5" y="-216.6" font-family="Bitstream Vera Sans" font-size="8.00">produces data of format</text>
</a>
</g>
</g>
<!-- Software&#45;&gt;Software -->
<g id="edge35" class="edge">
<title>Software&#45;&gt;Software</title>
<g id="a_edge35"><a xlink:href="#softwareIsSuccessorOfsoftware" xlink:title="is successor of&#10;has dependency">
<path fill="none" stroke="black" d="M1345.11,-412.26C1378.11,-418.22 1417,-415.63 1417,-404.5 1417,-394.5 1385.61,-391.4 1355.3,-395.19"/>
<polygon fill="black" stroke="black" points="1354.47,-391.78 1345.11,-396.74 1355.53,-398.7 1354.47,-391.78"/>
</a>
</g>
<g id="a_edge35&#45;label"><a xlink:href="#softwareIsSuccessorOfsoftware" xlink:title="is successor of&#10;has dependency">
<text text-anchor="middle" x="1451.5" y="-407.1" font-family="Bitstream Vera Sans" font-size="8.00">is successor of</text>
<text text-anchor="middle" x="1451.5" y="-398.1" font-family="Bitstream Vera Sans" font-size="8.00">has dependency</text>
</a>
</g>
</g>
<!-- Software&#45;&gt;Publication -->
<g id="edge37" class="edge">
<title>Software&#45;&gt;Publication</title>
<g id="a_edge37"><a xlink:href="#softwareIsDocumentedInPublication" xlink:title="is documented in">
<path fill="none" stroke="black" d="M1290.65,-393.22C1275.14,-387.81 1255.23,-381.58 1237,-378 1043.79,-340.09 549.89,-324.83 354,-305 318.6,-301.42 278.47,-296.55 249.25,-292.85"/>
<polygon fill="black" stroke="black" points="249.37,-289.34 239.01,-291.55 248.49,-296.29 249.37,-289.34"/>
</a>
</g>
<g id="a_edge37&#45;label"><a xlink:href="#softwareIsDocumentedInPublication" xlink:title="is documented in">
<text text-anchor="middle" x="1034.5" y="-343.6" font-family="Bitstream Vera Sans" font-size="8.00">is documented in</text>
</a>
</g>
</g>
<!-- Person -->
<g id="node12" class="node">
<title>Person</title>
<g id="a_node12"><a xlink:href="#Person" xlink:title="{Person}">
<polygon fill="none" stroke="gray" points="390,-268.5 390,-304.5 444,-304.5 444,-268.5 390,-268.5"/>
<text text-anchor="middle" x="417" y="-284.6" font-family="Bitstream Vera Sans" font-size="8.00">Person</text>
</a>
</g>
</g>
<!-- Software&#45;&gt;Person -->
<g id="edge39" class="edge">
<title>Software&#45;&gt;Person</title>
<g id="a_edge39"><a xlink:href="#softwareHasMaintainer" xlink:title="has Maintainer">
<path fill="none" stroke="black" d="M1291.22,-386.33C1266.52,-371.46 1228.29,-350.84 1192,-341 1050.37,-302.61 589.55,-290.83 454.51,-288.16"/>
<polygon fill="black" stroke="black" points="454.33,-284.65 444.27,-287.96 454.2,-291.65 454.33,-284.65"/>
</a>
</g>
<g id="a_edge39&#45;label"><a xlink:href="#softwareHasMaintainer" xlink:title="has Maintainer">
<text text-anchor="middle" x="1248.5" y="-343.6" font-family="Bitstream Vera Sans" font-size="8.00">has Maintainer</text>
</a>
</g>
</g>
<!-- Process -->
<g id="node17" class="node">
<title>Process</title>
<g id="a_node17"><a xlink:href="#Process" xlink:title="{Process}">
<polygon fill="none" stroke="black" points="1480,-268.5 1480,-304.5 1534,-304.5 1534,-268.5 1480,-268.5"/>
<text text-anchor="middle" x="1507" y="-284.6" font-family="Bitstream Vera Sans" font-size="8.00">Process</text>
</a>
</g>
</g>
<!-- Software&#45;&gt;Process -->
<g id="edge36" class="edge">
<title>Software&#45;&gt;Process</title>
<g id="a_edge36"><a xlink:href="#softwareImplementsProcess" xlink:title="implements">
<path fill="none" stroke="black" d="M1345.23,-387.84C1363.39,-377.3 1387.75,-363.02 1409,-350 1430.09,-337.08 1453.46,-322.2 1472.08,-310.2"/>
<polygon fill="black" stroke="black" points="1474.04,-313.1 1480.54,-304.74 1470.24,-307.22 1474.04,-313.1"/>
</a>
</g>
<g id="a_edge36&#45;label"><a xlink:href="#softwareImplementsProcess" xlink:title="implements">
<text text-anchor="middle" x="1446.5" y="-343.6" font-family="Bitstream Vera Sans" font-size="8.00">implements</text>
</a>
</g>
</g>
<!-- Computer -->
<g id="node6" class="node">
<title>Computer</title>
<g id="a_node6"><a xlink:href="#Computer" xlink:title="{Computer}">
<polygon fill="none" stroke="black" points="2028,-386.5 2028,-422.5 2084,-422.5 2084,-386.5 2028,-386.5"/>
<text text-anchor="middle" x="2056" y="-402.6" font-family="Bitstream Vera Sans" font-size="8.00">Computer</text>
</a>
</g>
</g>
<!-- Service -->
<g id="node7" class="node">
<title>Service</title>
<g id="a_node7"><a xlink:href="#Service" xlink:title="{Service}">
<polygon fill="none" stroke="gray" points="2086,-513.5 2086,-549.5 2140,-549.5 2140,-513.5 2086,-513.5"/>
<text text-anchor="middle" x="2113" y="-529.6" font-family="Bitstream Vera Sans" font-size="8.00">Service</text>
</a>
</g>
</g>
<!-- Service&#45;&gt;Software -->
<g id="edge22" class="edge">
<title>Service&#45;&gt;Software</title>
<g id="a_edge22"><a xlink:href="#serviceProvidesInstanceOfSoftware" xlink:title="provides instance of">
<path fill="none" stroke="black" d="M2085.97,-521.76C2074.93,-518.52 2061.96,-515.11 2050,-513 1850.24,-477.69 1794.63,-513.04 1595,-477 1566.34,-471.83 1560.13,-466.53 1532,-459 1470.14,-442.44 1397.79,-424.69 1355.05,-414.36"/>
<polygon fill="black" stroke="black" points="1355.64,-410.91 1345.1,-411.97 1354,-417.71 1355.64,-410.91"/>
</a>
</g>
<g id="a_edge22&#45;label"><a xlink:href="#serviceProvidesInstanceOfSoftware" xlink:title="provides instance of">
<text text-anchor="middle" x="1637" y="-466.1" font-family="Bitstream Vera Sans" font-size="8.00">provides instance of</text>
</a>
</g>
</g>
<!-- Service&#45;&gt;Computer -->
<g id="edge26" class="edge">
<title>Service&#45;&gt;Computer</title>
<g id="a_edge26"><a xlink:href="#serviceIsRunningOnServer" xlink:title="is running on">
<path fill="none" stroke="black" d="M2085.96,-517.44C2070.6,-508.42 2052.74,-494.83 2044,-477 2037.18,-463.08 2039.7,-446.02 2044.15,-432.05"/>
<polygon fill="black" stroke="black" points="2047.48,-433.11 2047.62,-422.51 2040.91,-430.71 2047.48,-433.11"/>
</a>
</g>
<g id="a_edge26&#45;label"><a xlink:href="#serviceIsRunningOnServer" xlink:title="is running on">
<text text-anchor="middle" x="2071" y="-466.1" font-family="Bitstream Vera Sans" font-size="8.00">is running on</text>
</a>
</g>
</g>
<!-- Service&#45;&gt;Person -->
<g id="edge24" class="edge">
<title>Service&#45;&gt;Person</title>
<g id="a_edge24"><a xlink:href="#serviceHasResponsiblePerson" xlink:title="has responsible">
<path fill="none" stroke="gray" stroke-dasharray="5,2" d="M2085.7,-521.47C2074.73,-518.23 2061.88,-514.9 2050,-513 1879.32,-485.7 1440.17,-520.94 1273,-477 1178.61,-452.19 1167.46,-414.61 1077,-378 1025.66,-357.22 1012.28,-352 958,-341 771.12,-303.11 542.25,-291.71 454.07,-288.58"/>
<polygon fill="gray" stroke="gray" points="454.14,-285.08 444.03,-288.24 453.9,-292.08 454.14,-285.08"/>
</a>
</g>
<g id="a_edge24&#45;label"><a xlink:href="#serviceHasResponsiblePerson" xlink:title="has responsible">
<text text-anchor="middle" x="1193" y="-402.6" font-family="Bitstream Vera Sans" font-size="8.00" fill="gray">has responsible</text>
</a>
</g>
</g>
<!-- Service&#45;&gt;Person -->
<g id="edge25" class="edge">
<title>Service&#45;&gt;Person</title>
<g id="a_edge25"><a xlink:href="#serviceHasResponsiblePerson" xlink:title="has responsible">
<path fill="none" stroke="black" d="M2085.91,-519.64C2000.15,-485.84 1726.3,-382.31 1489,-341 1283.76,-305.27 619.28,-291.14 454.33,-288.14"/>
<polygon fill="black" stroke="black" points="454.25,-284.64 444.19,-287.96 454.13,-291.63 454.25,-284.64"/>
</a>
</g>
<g id="a_edge25&#45;label"><a xlink:href="#serviceHasResponsiblePerson" xlink:title="has responsible">
<text text-anchor="middle" x="1838" y="-402.6" font-family="Bitstream Vera Sans" font-size="8.00">has responsible</text>
</a>
</g>
</g>
<!-- ResourceInstance -->
<g id="node15" class="node">
<title>ResourceInstance</title>
<g id="a_node15"><a xlink:href="#ResourceInstance" xlink:title="{Resource Instance}">
<polygon fill="none" stroke="black" points="2156,-386.5 2156,-422.5 2248,-422.5 2248,-386.5 2156,-386.5"/>
<text text-anchor="middle" x="2202" y="-402.6" font-family="Bitstream Vera Sans" font-size="8.00">Resource Instance</text>
</a>
</g>
</g>
<!-- Service&#45;&gt;ResourceInstance -->
<g id="edge23" class="edge">
<title>Service&#45;&gt;ResourceInstance</title>
<g id="a_edge23"><a xlink:href="#serviceProvidesInstanceOfResource" xlink:title="provides">
<path fill="none" stroke="black" d="M2140.08,-528.01C2193.47,-522.48 2309.26,-507.21 2333,-477 2357.91,-445.31 2304.16,-425.73 2258.15,-415.24"/>
<polygon fill="black" stroke="black" points="2258.7,-411.78 2248.19,-413.08 2257.22,-418.62 2258.7,-411.78"/>
</a>
</g>
<g id="a_edge23&#45;label"><a xlink:href="#serviceProvidesInstanceOfResource" xlink:title="provides">
<text text-anchor="middle" x="2357" y="-466.1" font-family="Bitstream Vera Sans" font-size="8.00">provides</text>
</a>
</g>
</g>
<!-- Actor -->
<g id="node8" class="node">
<title>Actor</title>
<g id="a_node8"><a xlink:href="#Actor" xlink:title="{Actor}">
<polygon fill="none" stroke="gray" points="390,-647.5 390,-683.5 444,-683.5 444,-647.5 390,-647.5"/>
<text text-anchor="middle" x="417" y="-663.6" font-family="Bitstream Vera Sans" font-size="8.00">Actor</text>
</a>
</g>
</g>
<!-- Actor&#45;&gt;Resource -->
<g id="edge15" class="edge">
<title>Actor&#45;&gt;Resource</title>
<g id="a_edge15"><a xlink:href="#actorIsOwnerOfResource" xlink:title="is owner of">
<path fill="none" stroke="black" d="M444.19,-664.38C561.23,-663.59 1033.58,-657.51 1418,-611 1557.83,-594.08 1721.5,-558.21 1794.06,-541.46"/>
<polygon fill="black" stroke="black" points="1795.14,-544.81 1804.09,-539.14 1793.56,-537.99 1795.14,-544.81"/>
</a>
</g>
<g id="a_edge15&#45;label"><a xlink:href="#actorIsOwnerOfResource" xlink:title="is owner of">
<text text-anchor="middle" x="1497" y="-604.6" font-family="Bitstream Vera Sans" font-size="8.00">is owner of</text>
</a>
</g>
</g>
<!-- Actor&#45;&gt;Service -->
<g id="edge3" class="edge">
<title>Actor&#45;&gt;Service</title>
<path fill="none" stroke="gray" stroke-dasharray="1,5" d="M444.11,-664.49C644.84,-664.28 1896.74,-660.29 2050,-594 2067.89,-586.26 2083.59,-570.97 2094.84,-557.57"/>
<polygon fill="gray" stroke="gray" points="2097.74,-559.55 2101.25,-549.56 2092.27,-555.18 2097.74,-559.55"/>
<text text-anchor="middle" x="2050" y="-604.6" font-family="Bitstream Vera Sans" font-size="8.00" fill="gray">has subclass</text>
</g>
<!-- Project -->
<g id="node11" class="node">
<title>Project</title>
<g id="a_node11"><a xlink:href="#Project" xlink:title="{Project}">
<polygon fill="none" stroke="black" points="181,-386.5 181,-422.5 235,-422.5 235,-386.5 181,-386.5"/>
<text text-anchor="middle" x="208" y="-402.6" font-family="Bitstream Vera Sans" font-size="8.00">Project</text>
</a>
</g>
</g>
<!-- Actor&#45;&gt;Project -->
<g id="edge14" class="edge">
<title>Actor&#45;&gt;Project</title>
<g id="a_edge14"><a xlink:href="#actorIsMemberOfProject" xlink:title="is member with role of">
<path fill="none" stroke="black" d="M389.63,-661.76C323.93,-654.62 160.04,-633.18 124,-594 83.02,-549.45 74.68,-510.8 106,-459 120.06,-435.75 147.93,-422.11 171,-414.42"/>
<polygon fill="black" stroke="black" points="172.33,-417.68 180.86,-411.39 170.27,-410.99 172.33,-417.68"/>
</a>
</g>
<g id="a_edge14&#45;label"><a xlink:href="#actorIsMemberOfProject" xlink:title="is member with role of">
<text text-anchor="middle" x="169.5" y="-529.6" font-family="Bitstream Vera Sans" font-size="8.00">is member with role of</text>
</a>
</g>
</g>
<!-- Actor&#45;&gt;Person -->
<g id="edge6" class="edge">
<title>Actor&#45;&gt;Person</title>
<path fill="none" stroke="gray" stroke-dasharray="1,5" d="M424.52,-647.35C429.1,-634.85 433.62,-617.46 431,-602 424.01,-560.7 419.35,-550.15 400,-513 390.88,-495.5 380.07,-495.78 374,-477 371.54,-469.39 373.4,-466.98 374,-459 378.01,-406.1 376.61,-391.77 392,-341 394.77,-331.88 398.82,-322.32 402.86,-313.85"/>
<polygon fill="gray" stroke="gray" points="406.03,-315.34 407.35,-304.83 399.76,-312.22 406.03,-315.34"/>
<text text-anchor="middle" x="401" y="-466.1" font-family="Bitstream Vera Sans" font-size="8.00" fill="gray">has subclass</text>
</g>
<!-- Institution -->
<g id="node14" class="node">
<title>Institution</title>
<g id="a_node14"><a xlink:href="#Institution" xlink:title="{Institution}">
<polygon fill="none" stroke="gray" points="251,-513.5 251,-549.5 309,-549.5 309,-513.5 251,-513.5"/>
<text text-anchor="middle" x="280" y="-529.6" font-family="Bitstream Vera Sans" font-size="8.00">Institution</text>
</a>
</g>
</g>
<!-- Actor&#45;&gt;Institution -->
<g id="edge8" class="edge">
<title>Actor&#45;&gt;Institution</title>
<path fill="none" stroke="gray" stroke-dasharray="1,5" d="M389.96,-660.54C343.96,-653.2 253.65,-635.92 235,-611 222.3,-594.03 235.49,-573.14 250.8,-557.18"/>
<polygon fill="gray" stroke="gray" points="253.67,-559.27 258.39,-549.78 248.78,-554.26 253.67,-559.27"/>
<text text-anchor="middle" x="262" y="-604.6" font-family="Bitstream Vera Sans" font-size="8.00" fill="gray">has subclass</text>
</g>
<!-- Actor&#45;&gt;Process -->
<g id="edge16" class="edge">
<title>Actor&#45;&gt;Process</title>
<g id="a_edge16"><a xlink:href="#actorExecutesProcess" xlink:title="executes">
<path fill="none" stroke="black" d="M444.26,-657.42C556.71,-628.44 995.82,-517.74 1363,-459 1439.55,-446.75 1658.09,-480.58 1710,-423 1765.58,-361.36 1617.28,-314.72 1544.54,-296.21"/>
<polygon fill="black" stroke="black" points="1544.94,-292.71 1534.39,-293.69 1543.25,-299.5 1544.94,-292.71"/>
</a>
</g>
<g id="a_edge16&#45;label"><a xlink:href="#actorExecutesProcess" xlink:title="executes">
<text text-anchor="middle" x="1381.5" y="-466.1" font-family="Bitstream Vera Sans" font-size="8.00">executes</text>
</a>
</g>
</g>
<!-- Dataset&#45;&gt;Dataset -->
<g id="edge41" class="edge">
<title>Dataset&#45;&gt;Dataset</title>
<g id="a_edge41"><a xlink:href="#datasetIsSuccessorOfdataset" xlink:title="is successor of">
<path fill="none" stroke="black" d="M514.11,-412.26C547.11,-418.22 586,-415.63 586,-404.5 586,-394.5 554.61,-391.4 524.3,-395.19"/>
<polygon fill="black" stroke="black" points="523.47,-391.78 514.11,-396.74 524.53,-398.7 523.47,-391.78"/>
</a>
</g>
<g id="a_edge41&#45;label"><a xlink:href="#datasetIsSuccessorOfdataset" xlink:title="is successor of">
<text text-anchor="middle" x="616.5" y="-402.6" font-family="Bitstream Vera Sans" font-size="8.00">is successor of</text>
</a>
</g>
</g>
<!-- Dataset&#45;&gt;Publication -->
<g id="edge40" class="edge">
<title>Dataset&#45;&gt;Publication</title>
<g id="a_edge40"><a xlink:href="#DatasetIsDocumentedInPublication" xlink:title="is documented in">
<path fill="none" stroke="black" d="M468.06,-386.25C464.23,-383.25 460.11,-380.35 456,-378 387.87,-339.07 299.95,-311.73 249.18,-297.9"/>
<polygon fill="black" stroke="black" points="249.8,-294.44 239.23,-295.23 247.98,-301.2 249.8,-294.44"/>
</a>
</g>
<g id="a_edge40&#45;label"><a xlink:href="#DatasetIsDocumentedInPublication" xlink:title="is documented in">
<text text-anchor="middle" x="433.5" y="-343.6" font-family="Bitstream Vera Sans" font-size="8.00">is documented in</text>
</a>
</g>
</g>
<!-- Publication&#45;&gt;Publication -->
<g id="edge42" class="edge">
<title>Publication&#45;&gt;Publication</title>
<g id="a_edge42"><a xlink:href="#publicationIsSuccessorOfPublication" xlink:title="is successor of">
<path fill="none" stroke="black" d="M239.11,-294.74C272.78,-300.07 311,-297.32 311,-286.5 311,-276.74 279.88,-273.55 249.06,-276.93"/>
<polygon fill="black" stroke="black" points="248.56,-273.47 239.11,-278.26 249.48,-280.41 248.56,-273.47"/>
</a>
</g>
<g id="a_edge42&#45;label"><a xlink:href="#publicationIsSuccessorOfPublication" xlink:title="is successor of">
<text text-anchor="middle" x="341.5" y="-284.6" font-family="Bitstream Vera Sans" font-size="8.00">is successor of</text>
</a>
</g>
</g>
<!-- Project&#45;&gt;Resource -->
<g id="edge17" class="edge">
<title>Project&#45;&gt;Resource</title>
<g id="a_edge17"><a xlink:href="#projectProducesResource" xlink:title="produces&#10;re&#45;uses">
<path fill="none" stroke="black" d="M235.14,-411.52C279.35,-421.35 369.63,-441.49 446,-459 480.26,-466.85 488.18,-472.26 523,-477 778.35,-511.75 1607.26,-526.9 1794.28,-529.92"/>
<polygon fill="black" stroke="black" points="1794.38,-533.42 1804.43,-530.08 1794.49,-526.42 1794.38,-533.42"/>
</a>
</g>
<g id="a_edge17&#45;label"><a xlink:href="#projectProducesResource" xlink:title="produces&#10;re&#45;uses">
<text text-anchor="middle" x="542.5" y="-470.6" font-family="Bitstream Vera Sans" font-size="8.00">produces</text>
<text text-anchor="middle" x="542.5" y="-461.6" font-family="Bitstream Vera Sans" font-size="8.00">re&#45;uses</text>
</a>
</g>
</g>
<!-- Project&#45;&gt;Publication -->
<g id="edge18" class="edge">
<title>Project&#45;&gt;Publication</title>
<g id="a_edge18"><a xlink:href="#projectIsDocumentedInPublication" xlink:title="is documented in">
<path fill="none" stroke="black" d="M208,-386.38C208,-367.54 208,-336.97 208,-314.8"/>
<polygon fill="black" stroke="black" points="211.5,-314.69 208,-304.69 204.5,-314.69 211.5,-314.69"/>
</a>
</g>
<g id="a_edge18&#45;label"><a xlink:href="#projectIsDocumentedInPublication" xlink:title="is documented in">
<text text-anchor="middle" x="243.5" y="-343.6" font-family="Bitstream Vera Sans" font-size="8.00">is documented in</text>
</a>
</g>
</g>
<!-- Person&#45;&gt;Resource -->
<g id="edge13" class="edge">
<title>Person&#45;&gt;Resource</title>
<g id="a_edge13"><a xlink:href="#personIsAssociatedWithResource" xlink:title="is associated with&#10;is creator of">
<path fill="none" stroke="black" d="M444.08,-288.44C532.56,-291.84 812.1,-305.22 894,-341 945.11,-363.33 942.53,-392.15 989,-423 1034.04,-452.9 1045.84,-462.77 1098,-477 1231.23,-513.35 1662.84,-526.46 1793.91,-529.66"/>
<polygon fill="black" stroke="black" points="1794.15,-533.16 1804.23,-529.9 1794.32,-526.17 1794.15,-533.16"/>
</a>
</g>
<g id="a_edge13&#45;label"><a xlink:href="#personIsAssociatedWithResource" xlink:title="is associated with&#10;is creator of">
<text text-anchor="middle" x="1026" y="-407.1" font-family="Bitstream Vera Sans" font-size="8.00">is associated with</text>
<text text-anchor="middle" x="1026" y="-398.1" font-family="Bitstream Vera Sans" font-size="8.00">is creator of</text>
</a>
</g>
</g>
<!-- Institution&#45;&gt;Actor -->
<g id="edge9" class="edge">
<title>Institution&#45;&gt;Actor</title>
<g id="a_edge9"><a xlink:href="#institutionHasMemberActor" xlink:title="has member">
<path fill="none" stroke="black" d="M297.91,-549.76C321.92,-572.89 364.64,-614.05 391.85,-640.27"/>
<polygon fill="black" stroke="black" points="389.46,-642.83 399.09,-647.24 394.32,-637.78 389.46,-642.83"/>
</a>
</g>
<g id="a_edge9&#45;label"><a xlink:href="#institutionHasMemberActor" xlink:title="has member">
<text text-anchor="middle" x="387" y="-604.6" font-family="Bitstream Vera Sans" font-size="8.00">has member</text>
</a>
</g>
</g>
<!-- Institution&#45;&gt;Project -->
<g id="edge10" class="edge">
<title>Institution&#45;&gt;Project</title>
<g id="a_edge10"><a xlink:href="#institutionFundsProject" xlink:title="is funder of">
<path fill="none" stroke="gray" stroke-dasharray="5,2" d="M270.14,-513.38C257.98,-492.27 237.19,-456.19 223.04,-431.61"/>
<polygon fill="gray" stroke="gray" points="226,-429.73 217.97,-422.81 219.93,-433.23 226,-429.73"/>
</a>
</g>
<g id="a_edge10&#45;label"><a xlink:href="#institutionFundsProject" xlink:title="is funder of">
<text text-anchor="middle" x="272.5" y="-466.1" font-family="Bitstream Vera Sans" font-size="8.00" fill="gray">is funder of</text>
</a>
</g>
</g>
<!-- Institution&#45;&gt;Project -->
<g id="edge11" class="edge">
<title>Institution&#45;&gt;Project</title>
<g id="a_edge11"><a xlink:href="#institutionHostsProject" xlink:title="is hosting institution of&#10;is funder of">
<path fill="none" stroke="black" d="M250.95,-524.44C211.02,-515.45 142.47,-497.43 128,-477 111.56,-453.78 143.21,-432.82 171.42,-419.68"/>
<polygon fill="black" stroke="black" points="173.06,-422.79 180.78,-415.54 170.22,-416.39 173.06,-422.79"/>
</a>
</g>
<g id="a_edge11&#45;label"><a xlink:href="#institutionHostsProject" xlink:title="is hosting institution of&#10;is funder of">
<text text-anchor="middle" x="175" y="-470.6" font-family="Bitstream Vera Sans" font-size="8.00">is hosting institution of</text>
<text text-anchor="middle" x="175" y="-461.6" font-family="Bitstream Vera Sans" font-size="8.00">is funder of</text>
</a>
</g>
</g>
<!-- Institution&#45;&gt;Institution -->
<g id="edge12" class="edge">
<title>Institution&#45;&gt;Institution</title>
<g id="a_edge12"><a xlink:href="#institutionIsPartOfInstitution" xlink:title="is part of">
<path fill="none" stroke="black" d="M309.21,-540.08C342.53,-546.08 381,-543.22 381,-531.5 381,-520.97 349.95,-517.6 319.48,-521.37"/>
<polygon fill="black" stroke="black" points="318.57,-517.96 309.21,-522.92 319.62,-524.88 318.57,-517.96"/>
</a>
</g>
<g id="a_edge12&#45;label"><a xlink:href="#institutionIsPartOfInstitution" xlink:title="is part of">
<text text-anchor="middle" x="399.5" y="-529.6" font-family="Bitstream Vera Sans" font-size="8.00">is part of</text>
</a>
</g>
</g>
<!-- ResourceInstance&#45;&gt;Resource -->
<g id="edge27" class="edge">
<title>ResourceInstance&#45;&gt;Resource</title>
<g id="a_edge27"><a xlink:href="#resourceInstanceIsManifestationOfResource" xlink:title="is instantiation of&#10;is authoritative instantiation of">
<path fill="none" stroke="black" d="M2185.77,-422.51C2168.92,-439.09 2141.02,-463.69 2112,-477 2030.86,-514.22 1925.06,-525.55 1869.63,-529"/>
<polygon fill="black" stroke="black" points="1869.34,-525.51 1859.56,-529.57 1869.74,-532.5 1869.34,-525.51"/>
</a>
</g>
<g id="a_edge27&#45;label"><a xlink:href="#resourceInstanceIsManifestationOfResource" xlink:title="is instantiation of&#10;is authoritative instantiation of">
<text text-anchor="middle" x="2204.5" y="-470.6" font-family="Bitstream Vera Sans" font-size="8.00">is instantiation of</text>
<text text-anchor="middle" x="2204.5" y="-461.6" font-family="Bitstream Vera Sans" font-size="8.00">is authoritative instantiation of</text>
</a>
</g>
</g>
<!-- ResourceInstance&#45;&gt;ResourceInstancePart -->
<g id="edge28" class="edge">
<title>ResourceInstance&#45;&gt;ResourceInstancePart</title>
<g id="a_edge28"><a xlink:href="#instanceIsMadeUpOfResourceInstanceParts" xlink:title="is made up of">
<path fill="none" stroke="black" d="M2180.34,-386.41C2126.33,-343.8 1985.59,-232.76 1923.81,-184.02"/>
<polygon fill="black" stroke="black" points="1925.65,-181.01 1915.63,-177.57 1921.32,-186.51 1925.65,-181.01"/>
</a>
</g>
<g id="a_edge28&#45;label"><a xlink:href="#instanceIsMadeUpOfResourceInstanceParts" xlink:title="is made up of">
<text text-anchor="middle" x="2101" y="-284.6" font-family="Bitstream Vera Sans" font-size="8.00">is made up of</text>
</a>
</g>
</g>
<!-- Process&#45;&gt;ResourceInstancePart -->
<g id="edge32" class="edge">
<title>Process&#45;&gt;ResourceInstancePart</title>
<g id="a_edge32"><a xlink:href="#processUsesInstancePart" xlink:title="uses&#10;produces">
<path fill="none" stroke="black" d="M1534.21,-276.71C1595.59,-256.89 1746.11,-208.27 1831.75,-180.61"/>
<polygon fill="black" stroke="black" points="1832.91,-183.91 1841.36,-177.5 1830.76,-177.25 1832.91,-183.91"/>
</a>
</g>
<g id="a_edge32&#45;label"><a xlink:href="#processUsesInstancePart" xlink:title="uses&#10;produces">
<text text-anchor="middle" x="1742.5" y="-225.6" font-family="Bitstream Vera Sans" font-size="8.00">uses</text>
<text text-anchor="middle" x="1742.5" y="-216.6" font-family="Bitstream Vera Sans" font-size="8.00">produces</text>
</a>
</g>
</g>
<!-- Process&#45;&gt;Publication -->
<g id="edge34" class="edge">
<title>Process&#45;&gt;Publication</title>
<g id="a_edge34"><a xlink:href="#processIsDocumentedInPublication" xlink:title="is documented in">
<path fill="none" stroke="black" d="M1479.71,-293.11C1425.17,-305.9 1298.68,-333.55 1190.5,-342 825.71,-370.48 383.63,-312.46 248.9,-292.74"/>
<polygon fill="black" stroke="black" points="249.41,-289.28 239.01,-291.28 248.39,-296.2 249.41,-289.28"/>
</a>
</g>
<g id="a_edge34&#45;label"><a xlink:href="#processIsDocumentedInPublication" xlink:title="is documented in">
<text text-anchor="middle" x="1155" y="-343.6" font-family="Bitstream Vera Sans" font-size="8.00">is documented in</text>
</a>
</g>
</g>
<!-- Process&#45;&gt;Process -->
<g id="edge33" class="edge">
<title>Process&#45;&gt;Process</title>
<g id="a_edge33"><a xlink:href="#processIsSubprocessOfProcess" xlink:title="is subprocess of&#10;is successor of">
<path fill="none" stroke="black" d="M1534.11,-294.26C1567.11,-300.22 1606,-297.63 1606,-286.5 1606,-276.5 1574.61,-273.4 1544.3,-277.19"/>
<polygon fill="black" stroke="black" points="1543.47,-273.78 1534.11,-278.74 1544.53,-280.7 1543.47,-273.78"/>
</a>
</g>
<g id="a_edge33&#45;label"><a xlink:href="#processIsSubprocessOfProcess" xlink:title="is subprocess of&#10;is successor of">
<text text-anchor="middle" x="1639.5" y="-289.1" font-family="Bitstream Vera Sans" font-size="8.00">is subprocess of</text>
<text text-anchor="middle" x="1639.5" y="-280.1" font-family="Bitstream Vera Sans" font-size="8.00">is successor of</text>
</a>
</g>
</g>
</g>
</svg>
